# xmcd CD database file
# Copyright (C) 1997 Ti Kan
#
# Track frame offsets:
#  150
#  11537
#  26317
#  43180
#  62690
#  80510
#  99732
#  114967
#  133087
#  149440
#  163895
#
# Disc length: 2534 seconds
#
# Revision: 1
# Processed by: cddbd v1.4b41PL1 Copyright (c) Steve Scherf et al.
# Submitted via: CDWizzard Release:4.23
#
DISCID=9109e40b
DTITLE=Risky Business - First Flight
DYEAR=1900
DGENRE=
TTITLE0=Chrome Buxom silhouette
TTITLE1=Love on the Line
TTITLE2=Ninety Years Too Late
TTITLE3=Full Moon at Half Price
TTITLE4=Desert Valley
TTITLE5=The Road I'm On
TTITLE6=Body Like a Weapon
TTITLE7=Middle Ground
TTITLE8=Let's Do Something We'll Both Regret
TTITLE9=Eyes of the Mind
TTITLE10=Touch a Name on the Wall
EXTD=
EXTT0=
EXTT1=
EXTT2=
EXTT3=
EXTT4=
EXTT5=
EXTT6=
EXTT7=
EXTT8=
EXTT9=
EXTT10=
PLAYORDER=
